<mxfile host="app.diagrams.net" modified="2023-02-25T17:11:12.838Z" agent="5.0 (Windows NT 10.0; Win64; x64) AppleWebKit/537.36 (KHTML, like Gecko) Chrome/110.0.0.0 Safari/537.36" etag="mPE2QQJfzZbq82MRjHJW" version="20.8.20" type="github" pages="2">
  <diagram name="HTTP Remove Listener" id="c7558073-3199-34d8-9f00-42111426c3f3">
    <mxGraphModel dx="1434" dy="768" grid="1" gridSize="10" guides="1" tooltips="1" connect="1" arrows="1" fold="1" page="1" pageScale="1" pageWidth="826" pageHeight="1169" background="none" math="0" shadow="0">
      <root>
        <mxCell id="0" />
        <mxCell id="1" parent="0" />
        <mxCell id="5" value="Power Automate Platform" style="shape=process;whiteSpace=wrap;align=center;verticalAlign=top;size=0;fontStyle=1;strokeWidth=2;fillColor=#f5f5f5;fontSize=14;fontColor=#333333;strokeColor=#666666;" parent="1" vertex="1">
          <mxGeometry x="220" y="120" width="580" height="580" as="geometry" />
        </mxCell>
        <mxCell id="2" value="&lt;p style=&quot;margin: 0px; margin-top: 4px; text-align: center; text-decoration: underline;&quot;&gt;&lt;/p&gt;&lt;u style=&quot;font-size: 11px;&quot;&gt;&lt;font style=&quot;font-size: 11px;&quot;&gt;HTTP Remove License &lt;br&gt;Assignment Listener&lt;/font&gt;&lt;/u&gt;&lt;p style=&quot;margin: 0px 0px 0px 8px; font-size: 11px;&quot;&gt;&lt;br&gt;&lt;/p&gt;&lt;p style=&quot;margin: 0px 0px 0px 8px; font-size: 11px;&quot;&gt;The API Endpoint for sending&amp;nbsp;&lt;/p&gt;&lt;p style=&quot;margin: 0px 0px 0px 8px; font-size: 11px;&quot;&gt;the HTTP Post Requests&lt;/p&gt;" style="verticalAlign=middle;align=center;overflow=fill;fontSize=12;fontFamily=Helvetica;html=1;rounded=1;fontStyle=1;strokeWidth=3;fillColor=#E6FFCC" parent="1" vertex="1">
          <mxGeometry x="261" y="170" width="170" height="90" as="geometry" />
        </mxCell>
        <mxCell id="4" value="Power Platform Admins" style="whiteSpace=wrap;align=center;verticalAlign=middle;fontStyle=1;strokeWidth=3;fillColor=#FFFFCC" parent="1" vertex="1">
          <mxGeometry x="30" y="450" width="90" height="60" as="geometry" />
        </mxCell>
        <mxCell id="6" value="&lt;p style=&quot;margin: 0px; margin-top: 4px; text-align: center; text-decoration: underline;&quot;&gt;&lt;strong&gt;Initialize Variables&lt;/strong&gt;&lt;/p&gt;&lt;hr&gt;&lt;p style=&quot;margin: 0px; margin-left: 8px;&quot;&gt;This is where we set values&amp;nbsp;&lt;/p&gt;&lt;p style=&quot;margin: 0px; margin-left: 8px;&quot;&gt;later as the flow progresses&amp;nbsp;&lt;/p&gt;&lt;p style=&quot;margin: 0px; margin-left: 8px;&quot;&gt;and passes validations.&lt;/p&gt;" style="verticalAlign=middle;align=center;overflow=fill;fontSize=12;fontFamily=Helvetica;html=1;rounded=1;fontStyle=1;strokeWidth=3;fillColor=#E6FFCC" parent="1" vertex="1">
          <mxGeometry x="460" y="170" width="170" height="90" as="geometry" />
        </mxCell>
        <mxCell id="12" value="Help Desk" style="whiteSpace=wrap;align=center;verticalAlign=middle;fontStyle=1;strokeWidth=3;fillColor=#FFFFCC" parent="1" vertex="1">
          <mxGeometry x="30" y="185.00000000000003" width="90" height="60" as="geometry" />
        </mxCell>
        <mxCell id="37" value="" style="edgeStyle=none;noEdgeStyle=1;strokeColor=#990000;strokeWidth=2" parent="1" source="4" edge="1">
          <mxGeometry width="100" height="100" relative="1" as="geometry">
            <mxPoint x="280" y="190" as="sourcePoint" />
            <mxPoint x="80" y="610" as="targetPoint" />
          </mxGeometry>
        </mxCell>
        <mxCell id="52" value="HTTP POST &#xa;API Call" style="text;spacingTop=-5;align=center" parent="1" vertex="1">
          <mxGeometry x="151" y="180" width="30" height="20" as="geometry" />
        </mxCell>
        <mxCell id="54" value="Documentation&#xa;from similar projects" style="text;spacingTop=-5;align=center" parent="1" vertex="1">
          <mxGeometry x="100" y="380" width="30" height="20" as="geometry" />
        </mxCell>
        <mxCell id="55" value="" style="edgeStyle=elbowEdgeStyle;elbow=horizontal;strokeColor=#990000;strokeWidth=2;exitX=1;exitY=0.5;exitDx=0;exitDy=0;entryX=0;entryY=0.5;entryDx=0;entryDy=0;" parent="1" source="12" target="2" edge="1">
          <mxGeometry width="100" height="100" relative="1" as="geometry">
            <mxPoint x="60" y="550" as="sourcePoint" />
            <mxPoint x="160" y="450" as="targetPoint" />
            <Array as="points">
              <mxPoint x="220" y="170" />
            </Array>
          </mxGeometry>
        </mxCell>
        <mxCell id="67" value="" style="edgeStyle=elbowEdgeStyle;elbow=horizontal;strokeColor=#990000;strokeWidth=2;entryX=0;entryY=0.5;entryDx=0;entryDy=0;" parent="1" source="2" target="6" edge="1">
          <mxGeometry width="100" height="100" relative="1" as="geometry">
            <mxPoint x="727" y="371" as="sourcePoint" />
            <mxPoint x="801" y="190" as="targetPoint" />
          </mxGeometry>
        </mxCell>
      </root>
    </mxGraphModel>
  </diagram>
  <diagram name="Copy of HTTP Remove Listener" id="ypvfa7grt5v3ssguG929">
    <mxGraphModel dx="1674" dy="768" grid="1" gridSize="10" guides="1" tooltips="1" connect="1" arrows="1" fold="1" page="1" pageScale="1" pageWidth="826" pageHeight="1169" background="none" math="0" shadow="0">
      <root>
        <mxCell id="jyUJX4RZv2pRGdOIUiYw-0" />
        <mxCell id="jyUJX4RZv2pRGdOIUiYw-1" parent="jyUJX4RZv2pRGdOIUiYw-0" />
        <mxCell id="jyUJX4RZv2pRGdOIUiYw-2" value="&lt;p style=&quot;margin: 0px; margin-top: 4px; text-align: center; text-decoration: underline;&quot;&gt;&lt;strong&gt;Process 1&lt;br /&gt;&lt;/strong&gt;&lt;/p&gt;&lt;hr /&gt;&lt;p style=&quot;margin: 0px; margin-left: 8px;&quot;&gt;System Study&lt;/p&gt;&lt;p style=&quot;margin: 0px; margin-left: 8px;&quot;&gt;Preparation&lt;/p&gt;" style="verticalAlign=middle;align=center;overflow=fill;fontSize=12;fontFamily=Helvetica;html=1;rounded=1;fontStyle=1;strokeWidth=3;fillColor=#E6FFCC" vertex="1" parent="jyUJX4RZv2pRGdOIUiYw-1">
          <mxGeometry x="236" y="236" width="110" height="90" as="geometry" />
        </mxCell>
        <mxCell id="jyUJX4RZv2pRGdOIUiYw-3" value="Engineering" style="whiteSpace=wrap;align=center;verticalAlign=middle;fontStyle=1;strokeWidth=3;fillColor=#FFFFCC" vertex="1" parent="jyUJX4RZv2pRGdOIUiYw-1">
          <mxGeometry x="246" y="126" width="90" height="60" as="geometry" />
        </mxCell>
        <mxCell id="jyUJX4RZv2pRGdOIUiYw-4" value="Investors" style="whiteSpace=wrap;align=center;verticalAlign=middle;fontStyle=1;strokeWidth=3;fillColor=#FFFFCC" vertex="1" parent="jyUJX4RZv2pRGdOIUiYw-1">
          <mxGeometry x="40" y="251" width="90" height="60" as="geometry" />
        </mxCell>
        <mxCell id="jyUJX4RZv2pRGdOIUiYw-5" value="ON-DEMAND SYSTEM DEVELOPMENT" style="shape=process;whiteSpace=wrap;align=center;verticalAlign=middle;size=0.0475;fontStyle=1;strokeWidth=3;fillColor=#FFCCCC" vertex="1" parent="jyUJX4RZv2pRGdOIUiYw-1">
          <mxGeometry x="200.99999999999991" y="391" width="400" height="50" as="geometry" />
        </mxCell>
        <mxCell id="jyUJX4RZv2pRGdOIUiYw-6" value="&lt;p style=&quot;margin: 0px; margin-top: 4px; text-align: center; text-decoration: underline;&quot;&gt;&lt;strong&gt;Process 2&lt;br /&gt;&lt;/strong&gt;&lt;/p&gt;&lt;hr /&gt;&lt;p style=&quot;margin: 0px; margin-left: 8px;&quot;&gt;System Analysis&lt;/p&gt;" style="verticalAlign=middle;align=center;overflow=fill;fontSize=12;fontFamily=Helvetica;html=1;rounded=1;fontStyle=1;strokeWidth=3;fillColor=#E6FFCC" vertex="1" parent="jyUJX4RZv2pRGdOIUiYw-1">
          <mxGeometry x="390" y="146" width="110" height="90" as="geometry" />
        </mxCell>
        <mxCell id="jyUJX4RZv2pRGdOIUiYw-7" value="&lt;p style=&quot;margin: 0px; margin-top: 4px; text-align: center; text-decoration: underline;&quot;&gt;&lt;strong&gt;&lt;strong&gt;Process&lt;/strong&gt; 3&lt;br /&gt;&lt;/strong&gt;&lt;/p&gt;&lt;hr /&gt;&lt;p style=&quot;margin: 0px; margin-left: 8px;&quot;&gt;List Possible&lt;/p&gt;&lt;p style=&quot;margin: 0px; margin-left: 8px;&quot;&gt;System Solutions&lt;/p&gt;" style="verticalAlign=middle;align=center;overflow=fill;fontSize=12;fontFamily=Helvetica;html=1;rounded=1;fontStyle=1;strokeWidth=3;fillColor=#E6FFCC" vertex="1" parent="jyUJX4RZv2pRGdOIUiYw-1">
          <mxGeometry x="681" y="371" width="110" height="90" as="geometry" />
        </mxCell>
        <mxCell id="jyUJX4RZv2pRGdOIUiYw-8" value="&lt;p style=&quot;margin: 0px; margin-top: 4px; text-align: center; text-decoration: underline;&quot;&gt;&lt;strong&gt;&lt;strong&gt;Process&lt;/strong&gt; 4&lt;br /&gt;&lt;/strong&gt;&lt;/p&gt;&lt;hr /&gt;&lt;p style=&quot;margin: 0px; margin-left: 8px;&quot;&gt;Detail Chosen&lt;/p&gt;&lt;p style=&quot;margin: 0px; margin-left: 8px;&quot;&gt;Solution&lt;/p&gt;" style="verticalAlign=middle;align=center;overflow=fill;fontSize=12;fontFamily=Helvetica;html=1;rounded=1;fontStyle=1;strokeWidth=3;fillColor=#E6FFCC" vertex="1" parent="jyUJX4RZv2pRGdOIUiYw-1">
          <mxGeometry x="560" y="241" width="110" height="90" as="geometry" />
        </mxCell>
        <mxCell id="jyUJX4RZv2pRGdOIUiYw-9" value="&lt;p style=&quot;margin: 0px; margin-top: 4px; text-align: center; text-decoration: underline;&quot;&gt;&lt;strong&gt;&lt;strong&gt;Process&lt;/strong&gt; 5&lt;br /&gt;&lt;/strong&gt;&lt;/p&gt;&lt;hr /&gt;&lt;p style=&quot;margin: 0px; margin-left: 8px;&quot;&gt;New System&lt;/p&gt;&lt;p style=&quot;margin: 0px; margin-left: 8px;&quot;&gt;Design&lt;/p&gt;" style="verticalAlign=middle;align=center;overflow=fill;fontSize=12;fontFamily=Helvetica;html=1;rounded=1;fontStyle=1;strokeWidth=3;fillColor=#E6FFCC" vertex="1" parent="jyUJX4RZv2pRGdOIUiYw-1">
          <mxGeometry x="540" y="510" width="110" height="90" as="geometry" />
        </mxCell>
        <mxCell id="jyUJX4RZv2pRGdOIUiYw-10" value="&lt;p style=&quot;margin: 0px; margin-top: 4px; text-align: center; text-decoration: underline;&quot;&gt;&lt;strong&gt;&lt;strong&gt;Process&lt;/strong&gt; 6&lt;br /&gt;&lt;/strong&gt;&lt;/p&gt;&lt;hr /&gt;&lt;p style=&quot;margin: 0px; margin-left: 8px;&quot;&gt;New&lt;/p&gt;&lt;p style=&quot;margin: 0px; margin-left: 8px;&quot;&gt;System&lt;/p&gt;&lt;p style=&quot;margin: 0px; margin-left: 8px;&quot;&gt;Construction&lt;/p&gt;" style="verticalAlign=middle;align=center;overflow=fill;fontSize=12;fontFamily=Helvetica;html=1;rounded=1;fontStyle=1;strokeWidth=3;fillColor=#E6FFCC" vertex="1" parent="jyUJX4RZv2pRGdOIUiYw-1">
          <mxGeometry x="188.49999999999991" y="510" width="110" height="90" as="geometry" />
        </mxCell>
        <mxCell id="jyUJX4RZv2pRGdOIUiYw-11" value="Management" style="whiteSpace=wrap;align=center;verticalAlign=middle;fontStyle=1;strokeWidth=3;fillColor=#FFFFCC" vertex="1" parent="jyUJX4RZv2pRGdOIUiYw-1">
          <mxGeometry x="691" y="60.00000000000002" width="90" height="60" as="geometry" />
        </mxCell>
        <mxCell id="jyUJX4RZv2pRGdOIUiYw-12" value="Management" style="whiteSpace=wrap;align=center;verticalAlign=middle;fontStyle=1;strokeWidth=3;fillColor=#FFFFCC" vertex="1" parent="jyUJX4RZv2pRGdOIUiYw-1">
          <mxGeometry x="353.50000000000006" y="650" width="90" height="60" as="geometry" />
        </mxCell>
        <mxCell id="jyUJX4RZv2pRGdOIUiYw-13" value="Engineering" style="whiteSpace=wrap;align=center;verticalAlign=middle;fontStyle=1;strokeWidth=3;fillColor=#FFFFCC" vertex="1" parent="jyUJX4RZv2pRGdOIUiYw-1">
          <mxGeometry x="34.99999999999997" y="524.9999999999999" width="90" height="60" as="geometry" />
        </mxCell>
        <mxCell id="jyUJX4RZv2pRGdOIUiYw-14" value="Vendors" style="whiteSpace=wrap;align=center;verticalAlign=middle;fontStyle=1;strokeWidth=3;fillColor=#FFFFCC" vertex="1" parent="jyUJX4RZv2pRGdOIUiYw-1">
          <mxGeometry x="549.9999999999999" y="650" width="90" height="60" as="geometry" />
        </mxCell>
        <mxCell id="jyUJX4RZv2pRGdOIUiYw-15" value="" style="edgeStyle=none;noEdgeStyle=1;strokeColor=#990000;strokeWidth=2" edge="1" parent="jyUJX4RZv2pRGdOIUiYw-1" source="jyUJX4RZv2pRGdOIUiYw-3" target="jyUJX4RZv2pRGdOIUiYw-2">
          <mxGeometry width="100" height="100" relative="1" as="geometry">
            <mxPoint x="20" y="250" as="sourcePoint" />
            <mxPoint x="120" y="150" as="targetPoint" />
          </mxGeometry>
        </mxCell>
        <mxCell id="jyUJX4RZv2pRGdOIUiYw-16" value="" style="edgeStyle=none;noEdgeStyle=1;strokeColor=#990000;strokeWidth=2" edge="1" parent="jyUJX4RZv2pRGdOIUiYw-1" source="jyUJX4RZv2pRGdOIUiYw-4" target="jyUJX4RZv2pRGdOIUiYw-2">
          <mxGeometry width="100" height="100" relative="1" as="geometry">
            <mxPoint x="280" y="190" as="sourcePoint" />
            <mxPoint x="380" y="90" as="targetPoint" />
          </mxGeometry>
        </mxCell>
        <mxCell id="jyUJX4RZv2pRGdOIUiYw-17" value="&lt;p style=&quot;margin: 0px; margin-top: 4px; text-align: center; text-decoration: underline;&quot;&gt;&lt;strong&gt;&lt;strong&gt;Process&lt;/strong&gt; 7&lt;br /&gt;&lt;/strong&gt;&lt;/p&gt;&lt;hr /&gt;&lt;p style=&quot;margin: 0px; margin-left: 8px;&quot;&gt;New System&lt;/p&gt;&lt;p style=&quot;margin: 0px; margin-left: 8px;&quot;&gt;Startup and&lt;/p&gt;&lt;p style=&quot;margin: 0px; margin-left: 8px;&quot;&gt;Testing&lt;/p&gt;" style="verticalAlign=middle;align=center;overflow=fill;fontSize=12;fontFamily=Helvetica;html=1;rounded=1;fontStyle=1;strokeWidth=3;fillColor=#E6FFCC" vertex="1" parent="jyUJX4RZv2pRGdOIUiYw-1">
          <mxGeometry x="343.49999999999994" y="510" width="110" height="90" as="geometry" />
        </mxCell>
        <mxCell id="jyUJX4RZv2pRGdOIUiYw-18" value="" style="endArrow=none;noEdgeStyle=1;strokeColor=#990000;strokeWidth=2" edge="1" parent="jyUJX4RZv2pRGdOIUiYw-1" source="jyUJX4RZv2pRGdOIUiYw-9" target="jyUJX4RZv2pRGdOIUiYw-17">
          <mxGeometry relative="1" as="geometry">
            <mxPoint x="205.00819672131135" y="481" as="sourcePoint" />
            <mxPoint x="400.32786885245895" y="650" as="targetPoint" />
          </mxGeometry>
        </mxCell>
        <mxCell id="jyUJX4RZv2pRGdOIUiYw-19" value="Desired &#xa;functionality" style="text;spacingTop=-5;align=center" vertex="1" parent="jyUJX4RZv2pRGdOIUiYw-1">
          <mxGeometry x="165" y="251" width="30" height="20" as="geometry" />
        </mxCell>
        <mxCell id="jyUJX4RZv2pRGdOIUiYw-20" value="Desired &#xa;functionality" style="text;spacingTop=-5;align=center" vertex="1" parent="jyUJX4RZv2pRGdOIUiYw-1">
          <mxGeometry x="241" y="196" width="30" height="20" as="geometry" />
        </mxCell>
        <mxCell id="jyUJX4RZv2pRGdOIUiYw-21" value="Documentation&#xa;from similar projects" style="text;spacingTop=-5;align=center" vertex="1" parent="jyUJX4RZv2pRGdOIUiYw-1">
          <mxGeometry x="186" y="341" width="30" height="20" as="geometry" />
        </mxCell>
        <mxCell id="jyUJX4RZv2pRGdOIUiYw-22" value="" style="edgeStyle=elbowEdgeStyle;elbow=horizontal;strokeColor=#990000;strokeWidth=2" edge="1" parent="jyUJX4RZv2pRGdOIUiYw-1" source="jyUJX4RZv2pRGdOIUiYw-5" target="jyUJX4RZv2pRGdOIUiYw-2">
          <mxGeometry width="100" height="100" relative="1" as="geometry">
            <mxPoint x="50" y="530" as="sourcePoint" />
            <mxPoint x="150" y="430" as="targetPoint" />
            <Array as="points">
              <mxPoint x="260" y="370" />
            </Array>
          </mxGeometry>
        </mxCell>
        <mxCell id="jyUJX4RZv2pRGdOIUiYw-23" value="" style="edgeStyle=elbowEdgeStyle;elbow=horizontal;strokeColor=#990000;strokeWidth=2" edge="1" parent="jyUJX4RZv2pRGdOIUiYw-1" source="jyUJX4RZv2pRGdOIUiYw-2" target="jyUJX4RZv2pRGdOIUiYw-5">
          <mxGeometry width="100" height="100" relative="1" as="geometry">
            <mxPoint x="50" y="500" as="sourcePoint" />
            <mxPoint x="150" y="400" as="targetPoint" />
            <Array as="points">
              <mxPoint x="280" y="360" />
            </Array>
          </mxGeometry>
        </mxCell>
        <mxCell id="jyUJX4RZv2pRGdOIUiYw-24" value="Elaborate&#xa;cost/benefit&#xa;ratio" style="text;spacingTop=-5;align=center" vertex="1" parent="jyUJX4RZv2pRGdOIUiYw-1">
          <mxGeometry x="306" y="341" width="30" height="20" as="geometry" />
        </mxCell>
        <mxCell id="jyUJX4RZv2pRGdOIUiYw-25" value="" style="edgeStyle=elbowEdgeStyle;elbow=horizontal;strokeColor=#990000;strokeWidth=2" edge="1" parent="jyUJX4RZv2pRGdOIUiYw-1" source="jyUJX4RZv2pRGdOIUiYw-5" target="jyUJX4RZv2pRGdOIUiYw-6">
          <mxGeometry width="100" height="100" relative="1" as="geometry">
            <mxPoint x="380" y="370" as="sourcePoint" />
            <mxPoint x="480" y="270" as="targetPoint" />
            <Array as="points">
              <mxPoint x="440" y="310" />
            </Array>
          </mxGeometry>
        </mxCell>
        <mxCell id="jyUJX4RZv2pRGdOIUiYw-26" value="" style="edgeStyle=elbowEdgeStyle;elbow=horizontal;strokeColor=#990000;strokeWidth=2" edge="1" parent="jyUJX4RZv2pRGdOIUiYw-1" source="jyUJX4RZv2pRGdOIUiYw-6" target="jyUJX4RZv2pRGdOIUiYw-5">
          <mxGeometry width="100" height="100" relative="1" as="geometry">
            <mxPoint x="350" y="370" as="sourcePoint" />
            <mxPoint x="450" y="270" as="targetPoint" />
            <Array as="points">
              <mxPoint x="460" y="320" />
            </Array>
          </mxGeometry>
        </mxCell>
        <mxCell id="jyUJX4RZv2pRGdOIUiYw-27" value="Existing&#xa;documentation" style="text;spacingTop=-5;align=center" vertex="1" parent="jyUJX4RZv2pRGdOIUiYw-1">
          <mxGeometry x="380.0000000000001" y="280.99999999999983" width="30" height="20" as="geometry" />
        </mxCell>
        <mxCell id="jyUJX4RZv2pRGdOIUiYw-28" value="Necessary&#xa;resources" style="text;spacingTop=-5;align=center" vertex="1" parent="jyUJX4RZv2pRGdOIUiYw-1">
          <mxGeometry x="481.0000000000002" y="251.00000000000006" width="30" height="20" as="geometry" />
        </mxCell>
        <mxCell id="jyUJX4RZv2pRGdOIUiYw-29" value="Progress&#xa;reports" style="text;spacingTop=-5;align=center" vertex="1" parent="jyUJX4RZv2pRGdOIUiYw-1">
          <mxGeometry x="545.0000000000001" y="100.00000000000003" width="30" height="20" as="geometry" />
        </mxCell>
        <mxCell id="jyUJX4RZv2pRGdOIUiYw-30" value="Progress&#xa;reports" style="text;spacingTop=-5;align=center" vertex="1" parent="jyUJX4RZv2pRGdOIUiYw-1">
          <mxGeometry x="640" y="146.0000000000001" width="30" height="20" as="geometry" />
        </mxCell>
        <mxCell id="jyUJX4RZv2pRGdOIUiYw-31" value="Progress&#xa;reports" style="text;spacingTop=-5;align=center" vertex="1" parent="jyUJX4RZv2pRGdOIUiYw-1">
          <mxGeometry x="751.0000000000001" y="261.0000000000001" width="30" height="20" as="geometry" />
        </mxCell>
        <mxCell id="jyUJX4RZv2pRGdOIUiYw-32" value="" style="edgeStyle=elbowEdgeStyle;elbow=horizontal;strokeColor=#990000;strokeWidth=2" edge="1" parent="jyUJX4RZv2pRGdOIUiYw-1" source="jyUJX4RZv2pRGdOIUiYw-6" target="jyUJX4RZv2pRGdOIUiYw-11">
          <mxGeometry width="100" height="100" relative="1" as="geometry">
            <mxPoint x="260" y="180.0000000000001" as="sourcePoint" />
            <mxPoint x="360" y="80.00000000000011" as="targetPoint" />
            <Array as="points">
              <mxPoint x="445" y="140" />
            </Array>
          </mxGeometry>
        </mxCell>
        <mxCell id="jyUJX4RZv2pRGdOIUiYw-33" value="" style="edgeStyle=elbowEdgeStyle;elbow=vertical;entryX=0.25;entryY=1;strokeColor=#990000;strokeWidth=2" edge="1" parent="jyUJX4RZv2pRGdOIUiYw-1" source="jyUJX4RZv2pRGdOIUiYw-8" target="jyUJX4RZv2pRGdOIUiYw-11">
          <mxGeometry width="100" height="100" relative="1" as="geometry">
            <mxPoint x="530" y="250" as="sourcePoint" />
            <mxPoint x="630" y="150" as="targetPoint" />
          </mxGeometry>
        </mxCell>
        <mxCell id="jyUJX4RZv2pRGdOIUiYw-34" value="" style="edgeStyle=elbowEdgeStyle;elbow=horizontal;strokeColor=#990000;strokeWidth=2" edge="1" parent="jyUJX4RZv2pRGdOIUiYw-1" source="jyUJX4RZv2pRGdOIUiYw-7" target="jyUJX4RZv2pRGdOIUiYw-11">
          <mxGeometry width="100" height="100" relative="1" as="geometry">
            <mxPoint x="660.0000000000002" y="360" as="sourcePoint" />
            <mxPoint x="760.0000000000002" y="260" as="targetPoint" />
          </mxGeometry>
        </mxCell>
        <mxCell id="jyUJX4RZv2pRGdOIUiYw-35" value="" style="edgeStyle=elbowEdgeStyle;elbow=horizontal;strokeColor=#990000;strokeWidth=2" edge="1" parent="jyUJX4RZv2pRGdOIUiYw-1" source="jyUJX4RZv2pRGdOIUiYw-8" target="jyUJX4RZv2pRGdOIUiYw-5">
          <mxGeometry width="100" height="100" relative="1" as="geometry">
            <mxPoint x="570" y="380" as="sourcePoint" />
            <mxPoint x="510" y="250" as="targetPoint" />
            <Array as="points">
              <mxPoint x="570" y="360" />
            </Array>
          </mxGeometry>
        </mxCell>
        <mxCell id="jyUJX4RZv2pRGdOIUiYw-36" value="" style="edgeStyle=segmentEdgeStyle;strokeColor=#990000;strokeWidth=2" edge="1" parent="jyUJX4RZv2pRGdOIUiYw-1" source="jyUJX4RZv2pRGdOIUiYw-5" target="jyUJX4RZv2pRGdOIUiYw-8">
          <mxGeometry width="100" height="100" relative="1" as="geometry">
            <mxPoint x="340" y="360" as="sourcePoint" />
            <mxPoint x="440" y="260" as="targetPoint" />
            <Array as="points">
              <mxPoint x="520" y="286" />
            </Array>
          </mxGeometry>
        </mxCell>
        <mxCell id="jyUJX4RZv2pRGdOIUiYw-37" value="Existing&#xa;Models" style="text;spacingTop=-5;align=center" vertex="1" parent="jyUJX4RZv2pRGdOIUiYw-1">
          <mxGeometry x="530.0000000000002" y="340.9999999999999" width="30" height="20" as="geometry" />
        </mxCell>
        <mxCell id="jyUJX4RZv2pRGdOIUiYw-38" value="Equipment&#xa;specification" style="text;spacingTop=-5;align=center" vertex="1" parent="jyUJX4RZv2pRGdOIUiYw-1">
          <mxGeometry x="615" y="341" width="30" height="20" as="geometry" />
        </mxCell>
        <mxCell id="jyUJX4RZv2pRGdOIUiYw-39" value="" style="edgeStyle=elbowEdgeStyle;elbow=vertical;strokeColor=#990000;strokeWidth=2" edge="1" parent="jyUJX4RZv2pRGdOIUiYw-1" source="jyUJX4RZv2pRGdOIUiYw-5" target="jyUJX4RZv2pRGdOIUiYw-7">
          <mxGeometry width="100" height="100" relative="1" as="geometry">
            <mxPoint x="500" y="500" as="sourcePoint" />
            <mxPoint x="600" y="400" as="targetPoint" />
            <Array as="points">
              <mxPoint x="650" y="410" />
            </Array>
          </mxGeometry>
        </mxCell>
        <mxCell id="jyUJX4RZv2pRGdOIUiYw-40" value="" style="edgeStyle=elbowEdgeStyle;elbow=vertical;strokeColor=#990000;strokeWidth=2" edge="1" parent="jyUJX4RZv2pRGdOIUiYw-1" source="jyUJX4RZv2pRGdOIUiYw-7" target="jyUJX4RZv2pRGdOIUiYw-5">
          <mxGeometry width="100" height="100" relative="1" as="geometry">
            <mxPoint x="460" y="500" as="sourcePoint" />
            <mxPoint x="560" y="400" as="targetPoint" />
            <Array as="points">
              <mxPoint x="650" y="430" />
            </Array>
          </mxGeometry>
        </mxCell>
        <mxCell id="jyUJX4RZv2pRGdOIUiYw-41" value="Resources" style="text;spacingTop=-5;align=center" vertex="1" parent="jyUJX4RZv2pRGdOIUiYw-1">
          <mxGeometry x="621" y="390.99999999999994" width="30" height="20" as="geometry" />
        </mxCell>
        <mxCell id="jyUJX4RZv2pRGdOIUiYw-42" value="System &#xa;Advantages &#xa;and Limitations" style="text;spacingTop=-5;align=center" vertex="1" parent="jyUJX4RZv2pRGdOIUiYw-1">
          <mxGeometry x="630" y="431.0000000000001" width="30" height="20" as="geometry" />
        </mxCell>
        <mxCell id="jyUJX4RZv2pRGdOIUiYw-43" value="" style="edgeStyle=elbowEdgeStyle;elbow=horizontal;strokeColor=#990000;strokeWidth=2" edge="1" parent="jyUJX4RZv2pRGdOIUiYw-1" source="jyUJX4RZv2pRGdOIUiYw-9" target="jyUJX4RZv2pRGdOIUiYw-5">
          <mxGeometry width="100" height="100" relative="1" as="geometry">
            <mxPoint x="420" y="580" as="sourcePoint" />
            <mxPoint x="520" y="480" as="targetPoint" />
            <Array as="points">
              <mxPoint x="570" y="470" />
            </Array>
          </mxGeometry>
        </mxCell>
        <mxCell id="jyUJX4RZv2pRGdOIUiYw-44" value="" style="edgeStyle=elbowEdgeStyle;elbow=horizontal;strokeColor=#990000;strokeWidth=2" edge="1" parent="jyUJX4RZv2pRGdOIUiYw-1" source="jyUJX4RZv2pRGdOIUiYw-5" target="jyUJX4RZv2pRGdOIUiYw-9">
          <mxGeometry width="100" height="100" relative="1" as="geometry">
            <mxPoint x="400" y="590" as="sourcePoint" />
            <mxPoint x="500" y="490" as="targetPoint" />
            <Array as="points">
              <mxPoint x="560" y="480" />
            </Array>
          </mxGeometry>
        </mxCell>
        <mxCell id="jyUJX4RZv2pRGdOIUiYw-45" value="" style="edgeStyle=elbowEdgeStyle;elbow=horizontal;strokeColor=#990000;strokeWidth=2" edge="1" parent="jyUJX4RZv2pRGdOIUiYw-1" source="jyUJX4RZv2pRGdOIUiYw-14" target="jyUJX4RZv2pRGdOIUiYw-9">
          <mxGeometry width="100" height="100" relative="1" as="geometry">
            <mxPoint x="430" y="700" as="sourcePoint" />
            <mxPoint x="530" y="600" as="targetPoint" />
          </mxGeometry>
        </mxCell>
        <mxCell id="jyUJX4RZv2pRGdOIUiYw-46" value="Hardware and&#xa;Software specs" style="text;spacingTop=-5;align=center" vertex="1" parent="jyUJX4RZv2pRGdOIUiYw-1">
          <mxGeometry x="625" y="610" width="30" height="20" as="geometry" />
        </mxCell>
        <mxCell id="jyUJX4RZv2pRGdOIUiYw-47" value="" style="edgeStyle=elbowEdgeStyle;elbow=horizontal;exitX=0;exitY=0.75;strokeColor=#990000;strokeWidth=2" edge="1" parent="jyUJX4RZv2pRGdOIUiYw-1" source="jyUJX4RZv2pRGdOIUiYw-9" target="jyUJX4RZv2pRGdOIUiYw-12">
          <mxGeometry width="100" height="100" relative="1" as="geometry">
            <mxPoint x="420" y="730" as="sourcePoint" />
            <mxPoint x="520" y="630" as="targetPoint" />
            <Array as="points">
              <mxPoint x="470" y="630" />
            </Array>
          </mxGeometry>
        </mxCell>
        <mxCell id="jyUJX4RZv2pRGdOIUiYw-48" value="Progress&#xa;Reports" style="text;spacingTop=-5;align=center" vertex="1" parent="jyUJX4RZv2pRGdOIUiYw-1">
          <mxGeometry x="481.0000000000004" y="610.0000000000001" width="30" height="20" as="geometry" />
        </mxCell>
        <mxCell id="jyUJX4RZv2pRGdOIUiYw-49" value="" style="edgeStyle=elbowEdgeStyle;elbow=horizontal;strokeColor=#990000;strokeWidth=2" edge="1" parent="jyUJX4RZv2pRGdOIUiYw-1" source="jyUJX4RZv2pRGdOIUiYw-17" target="jyUJX4RZv2pRGdOIUiYw-12">
          <mxGeometry width="100" height="100" relative="1" as="geometry">
            <mxPoint x="200" y="660.0000000000002" as="sourcePoint" />
            <mxPoint x="230.0000000000001" y="650" as="targetPoint" />
          </mxGeometry>
        </mxCell>
        <mxCell id="jyUJX4RZv2pRGdOIUiYw-50" value="Progress&#xa;Reports" style="text;spacingTop=-5;align=center" vertex="1" parent="jyUJX4RZv2pRGdOIUiYw-1">
          <mxGeometry x="410.00000000000017" y="610.0000000000002" width="30" height="20" as="geometry" />
        </mxCell>
        <mxCell id="jyUJX4RZv2pRGdOIUiYw-51" value="" style="edgeStyle=elbowEdgeStyle;elbow=horizontal;strokeColor=#990000;strokeWidth=2" edge="1" parent="jyUJX4RZv2pRGdOIUiYw-1" source="jyUJX4RZv2pRGdOIUiYw-10" target="jyUJX4RZv2pRGdOIUiYw-12">
          <mxGeometry width="100" height="100" relative="1" as="geometry">
            <mxPoint x="130.0000000000001" y="740" as="sourcePoint" />
            <mxPoint x="230.0000000000001" y="640" as="targetPoint" />
            <Array as="points">
              <mxPoint x="244" y="630" />
            </Array>
          </mxGeometry>
        </mxCell>
        <mxCell id="jyUJX4RZv2pRGdOIUiYw-52" value="Progress&#xa;Reports" style="text;spacingTop=-5;align=center" vertex="1" parent="jyUJX4RZv2pRGdOIUiYw-1">
          <mxGeometry x="255.99999999999994" y="650.0000000000001" width="30" height="20" as="geometry" />
        </mxCell>
        <mxCell id="jyUJX4RZv2pRGdOIUiYw-53" value="" style="edgeStyle=elbowEdgeStyle;elbow=vertical;strokeColor=#990000;strokeWidth=2" edge="1" parent="jyUJX4RZv2pRGdOIUiYw-1" source="jyUJX4RZv2pRGdOIUiYw-10" target="jyUJX4RZv2pRGdOIUiYw-13">
          <mxGeometry width="100" height="100" relative="1" as="geometry">
            <mxPoint x="70" y="740" as="sourcePoint" />
            <mxPoint x="170" y="640" as="targetPoint" />
          </mxGeometry>
        </mxCell>
        <mxCell id="jyUJX4RZv2pRGdOIUiYw-54" value="" style="edgeStyle=elbowEdgeStyle;elbow=horizontal;strokeColor=#990000;strokeWidth=2" edge="1" parent="jyUJX4RZv2pRGdOIUiYw-1" source="jyUJX4RZv2pRGdOIUiYw-5" target="jyUJX4RZv2pRGdOIUiYw-17">
          <mxGeometry width="100" height="100" relative="1" as="geometry">
            <mxPoint x="50" y="500" as="sourcePoint" />
            <mxPoint x="150" y="400" as="targetPoint" />
            <Array as="points">
              <mxPoint x="390" y="470" />
            </Array>
          </mxGeometry>
        </mxCell>
        <mxCell id="jyUJX4RZv2pRGdOIUiYw-55" value="" style="edgeStyle=elbowEdgeStyle;elbow=horizontal;strokeColor=#990000;strokeWidth=2" edge="1" parent="jyUJX4RZv2pRGdOIUiYw-1" source="jyUJX4RZv2pRGdOIUiYw-17" target="jyUJX4RZv2pRGdOIUiYw-5">
          <mxGeometry width="100" height="100" relative="1" as="geometry">
            <mxPoint x="59.999999999999886" y="510" as="sourcePoint" />
            <mxPoint x="159.9999999999999" y="410" as="targetPoint" />
            <Array as="points">
              <mxPoint x="410" y="470" />
            </Array>
          </mxGeometry>
        </mxCell>
        <mxCell id="jyUJX4RZv2pRGdOIUiYw-56" value="Version&#xa;specs" style="text;spacingTop=-5;align=center" vertex="1" parent="jyUJX4RZv2pRGdOIUiYw-1">
          <mxGeometry x="261" y="461" width="30" height="20" as="geometry" />
        </mxCell>
        <mxCell id="jyUJX4RZv2pRGdOIUiYw-57" value="Certificates,&#xa;system&#xa;libraries" style="text;spacingTop=-5;align=center" vertex="1" parent="jyUJX4RZv2pRGdOIUiYw-1">
          <mxGeometry x="180" y="461.0000000000002" width="30" height="20" as="geometry" />
        </mxCell>
        <mxCell id="jyUJX4RZv2pRGdOIUiYw-58" value="" style="edgeStyle=elbowEdgeStyle;elbow=horizontal;strokeColor=#990000;strokeWidth=2" edge="1" parent="jyUJX4RZv2pRGdOIUiYw-1" source="jyUJX4RZv2pRGdOIUiYw-5" target="jyUJX4RZv2pRGdOIUiYw-10">
          <mxGeometry width="100" height="100" relative="1" as="geometry">
            <mxPoint x="30.000000000000114" y="500" as="sourcePoint" />
            <mxPoint x="130.0000000000001" y="400" as="targetPoint" />
            <Array as="points">
              <mxPoint x="250" y="470" />
            </Array>
          </mxGeometry>
        </mxCell>
        <mxCell id="jyUJX4RZv2pRGdOIUiYw-59" value="" style="edgeStyle=elbowEdgeStyle;elbow=horizontal;strokeColor=#990000;strokeWidth=2" edge="1" parent="jyUJX4RZv2pRGdOIUiYw-1" source="jyUJX4RZv2pRGdOIUiYw-10" target="jyUJX4RZv2pRGdOIUiYw-5">
          <mxGeometry width="100" height="100" relative="1" as="geometry">
            <mxPoint x="40" y="510" as="sourcePoint" />
            <mxPoint x="140" y="410" as="targetPoint" />
            <Array as="points">
              <mxPoint x="230" y="470" />
            </Array>
          </mxGeometry>
        </mxCell>
        <mxCell id="jyUJX4RZv2pRGdOIUiYw-60" value="System&#xa;specs" style="text;spacingTop=-5;align=center" vertex="1" parent="jyUJX4RZv2pRGdOIUiYw-1">
          <mxGeometry x="139.99999999999994" y="565.0000000000001" width="30" height="20" as="geometry" />
        </mxCell>
        <mxCell id="jyUJX4RZv2pRGdOIUiYw-61" value="Design&#xa;specs" style="text;spacingTop=-5;align=center" vertex="1" parent="jyUJX4RZv2pRGdOIUiYw-1">
          <mxGeometry x="423.49999999999994" y="461.0000000000002" width="30" height="20" as="geometry" />
        </mxCell>
        <mxCell id="jyUJX4RZv2pRGdOIUiYw-62" value="System&#xa;version" style="text;spacingTop=-5;align=center" vertex="1" parent="jyUJX4RZv2pRGdOIUiYw-1">
          <mxGeometry x="350.9999999999998" y="461" width="30" height="20" as="geometry" />
        </mxCell>
      </root>
    </mxGraphModel>
  </diagram>
</mxfile>
